<?xml version="1.0" encoding="utf-8"?>
<!-- Generator: Adobe Illustrator 20.1.0, SVG Export Plug-In . SVG Version: 6.00 Build 0)  -->
<svg version="1.1" id="Layer_1" xmlns="http://www.w3.org/2000/svg" xmlns:xlink="http://www.w3.org/1999/xlink" x="0px" y="0px"
	 viewBox="0 0 52 52" enable-background="new 0 0 52 52" xml:space="preserve">
<path d="M44.4,7.6C34.2-2.5,17.8-2.5,7.6,7.6c-10.2,10.1-10.2,26.6,0,36.8c10.2,10.2,26.6,10.1,36.8,0C54.5,34.2,54.5,17.8,44.4,7.6
	z M22.7,14.6h6.5l0,0l-1,17l0,0h-4.6l0,0L22.7,14.6L22.7,14.6z M26,41.3c-2,0-3.6-1.6-3.6-3.6c0-2,1.6-3.6,3.6-3.6
	c2,0,3.6,1.6,3.6,3.6C29.6,39.7,27.9,41.3,26,41.3z"/>
</svg>
