<?xml version="1.0" encoding="utf-8"?>
<!-- Generator: Adobe Illustrator 20.1.0, SVG Export Plug-In . SVG Version: 6.00 Build 0)  -->
<svg version="1.1" id="Layer_1" xmlns="http://www.w3.org/2000/svg" xmlns:xlink="http://www.w3.org/1999/xlink" x="0px" y="0px"
	 viewBox="0 0 52 46" enable-background="new 0 0 52 46" xml:space="preserve">
<path d="M51.6,43.1L27.7,1.2c-0.9-1.6-2.5-1.6-3.4,0L0.4,43.1c-0.9,1.6-0.2,3,1.7,3h47.8C51.8,46,52.5,44.7,51.6,43.1z M23,15.4H29
	l-0.9,15.8h-4.2L23,15.4z M26,40.3c-1.9,0-3.4-1.5-3.4-3.3c0-1.9,1.5-3.4,3.4-3.4c1.8,0,3.3,1.5,3.3,3.4
	C29.3,38.7,27.8,40.3,26,40.3z"/>
</svg>
